<?xml version="1.0" encoding="UTF-8"?>
<svg version="1.1" xmlns="http://www.w3.org/2000/svg" width="300" height="300">
<path d="M0 0 C2.7632621 0.03549144 4.47221937 0.46756932 6.44091797 2.45361328 C8.00618284 4.4487638 9.48264705 6.48546922 10.9375 8.5625 C11.68676758 9.59987305 11.68676758 9.59987305 12.45117188 10.65820312 C13.46047221 12.05559572 14.46358197 13.45748048 15.46044922 14.86376953 C17.5380286 17.74655095 19.71394544 20.55068609 21.90063477 23.35131836 C23 25 23 25 23 27 C23.66 27 24.32 27 25 27 C26.40234375 28.64453125 26.40234375 28.64453125 27.9375 30.8125 C29.43752322 32.91867071 30.83158512 34.83703041 32.69140625 36.63671875 C34 38 34 38 34 40 C34.66 40 35.32 40 36 40 C36 40.66 36 41.32 36 42 C36.66 42 37.32 42 38 42 C38 42.66 38 43.32 38 44 C38.57621094 44.25394531 39.15242187 44.50789063 39.74609375 44.76953125 C42.25087882 46.13696158 43.99669305 47.7220874 46.0625 49.6875 C57.25179498 59.79808844 72.10773319 68.10150512 87 71 C90.75070342 70.57678946 92.61949746 69.97562818 95 67 C97.82199414 61.35601171 96.15144018 54.80360585 94.30810547 49.08105469 C90.66287857 38.60132576 86.00238375 27.56979733 79.2421875 18.69140625 C77.56968552 16.41406864 77.77060368 14.75275585 78 12 C79.65 12 81.3 12 83 12 C83 12.66 83 13.32 83 14 C83.66 14 84.32 14 85 14 C85 14.66 85 15.32 85 16 C85.99 16.33 86.98 16.66 88 17 C88 17.66 88 18.32 88 19 C88.66 19 89.32 19 90 19 C90 19.66 90 20.32 90 21 C90.66 21 91.32 21 92 21 C96 26.41176471 96 26.41176471 96 29 C96.66 29 97.32 29 98 29 C99.45341389 31.90682779 100.90511026 34.81431672 102.34765625 37.7265625 C103.32138593 39.65560617 104.31939368 41.5732707 105.37109375 43.4609375 C116.84468198 64.40649108 116.64598115 92.4436305 110.19140625 114.80078125 C106.4085911 126.14922671 100.51416769 136.92682392 94.125 147 C93.74384033 147.60561768 93.36268066 148.21123535 92.9699707 148.83520508 C92.03767481 150.26285513 91.02578102 151.63796711 90 153 C89.34 153 88.68 153 88 153 C87.731875 153.7425 87.46375 154.485 87.1875 155.25 C86.04723249 157.89061949 84.90619694 159.85552844 83 162 C82.34 162 81.68 162 81 162 C80.71125 162.598125 80.4225 163.19625 80.125 163.8125 C79 166 79 166 77 169 C76.34 169 75.68 169 75 169 C75 169.66 75 170.32 75 171 C74.34 171 73.68 171 73 171 C72.7834375 171.54140625 72.566875 172.0828125 72.34375 172.640625 C70.53500003 175.81645344 68.08276201 178.20728081 65.5 180.75 C65.00113281 181.25660156 64.50226563 181.76320313 63.98828125 182.28515625 C60.25341139 186 60.25341139 186 58 186 C57.7421875 186.59296875 57.484375 187.1859375 57.21875 187.796875 C55.90230105 190.17660965 54.57419218 191.50978792 52.5 193.25 C51.8915625 193.77078125 51.283125 194.2915625 50.65625 194.828125 C49 196 49 196 47 196 C47 196.66 47 197.32 47 198 C45.1015625 199.7265625 45.1015625 199.7265625 42.625 201.625 C41.81289063 202.25664062 41.00078125 202.88828125 40.1640625 203.5390625 C38 205 38 205 36 205 C36 205.66 36 206.32 36 207 C34.65478516 208.23681641 34.65478516 208.23681641 32.7890625 209.6015625 C32.12132812 210.09140625 31.45359375 210.58125 30.765625 211.0859375 C30.05921875 211.59382812 29.3528125 212.10171875 28.625 212.625 C27.57699219 213.3984375 27.57699219 213.3984375 26.5078125 214.1875 C21.26310351 218 21.26310351 218 19 218 C19 218.66 19 219.32 19 220 C17.11318498 221.40414141 15.16370061 222.72472938 13.1875 224 C12.10855469 224.70125 11.02960938 225.4025 9.91796875 226.125 C8.95503906 226.74375 7.99210937 227.3625 7 228 C6.01 228.66 5.02 229.32 4 230 C-1.01167749 229.77848939 -3.83923082 228.02490434 -7.75 225 C-11.22469876 222.25927594 -11.22469876 222.25927594 -15 220 C-15 219.34 -15 218.68 -15 218 C-15.69480469 217.7628125 -16.38960938 217.525625 -17.10546875 217.28125 C-20.52198185 215.7689473 -23.35756671 213.74761633 -26.3125 211.5 C-26.86228516 211.09652344 -27.41207031 210.69304687 -27.97851562 210.27734375 C-29.36007451 209.23731309 -30.68556298 208.12366546 -32 207 C-32 206.34 -32 205.68 -32 205 C-33.051875 204.6596875 -33.051875 204.6596875 -34.125 204.3125 C-37.74128535 202.66158712 -40.08769976 200.7091165 -43 198 C-43 197.34 -43 196.68 -43 196 C-43.58265625 195.731875 -44.1653125 195.46375 -44.765625 195.1875 C-47.02786601 193.98519009 -48.80576318 192.66174087 -50.75 191 C-51.36359375 190.484375 -51.9771875 189.96875 -52.609375 189.4375 C-54 188 -54 188 -54 186 C-54.54140625 185.7834375 -55.0828125 185.566875 -55.640625 185.34375 C-58.81645344 183.53500003 -61.20728081 181.08276201 -63.75 178.5 C-64.25660156 178.00113281 -64.76320312 177.50226563 -65.28515625 176.98828125 C-69 173.25341139 -69 173.25341139 -69 171 C-69.66 171 -70.32 171 -71 171 C-71 170.34 -71 169.68 -71 169 C-71.66 169 -72.32 169 -73 169 C-77 164.52941176 -77 164.52941176 -77 162 C-77.66 162 -78.32 162 -79 162 C-80.2890625 160.5390625 -80.2890625 160.5390625 -81.625 158.625 C-82.07101563 157.99851562 -82.51703125 157.37203125 -82.9765625 156.7265625 C-84 155 -84 155 -84 153 C-84.66 153 -85.32 153 -86 153 C-87.83881184 150.53605312 -89.52979835 148.08306631 -91.1875 145.5 C-91.67927734 144.73695557 -92.17105469 143.97391113 -92.67773438 143.18774414 C-97.32632808 135.79066179 -100.8301447 128.12275421 -104 120 C-104.26143799 119.33782471 -104.52287598 118.67564941 -104.79223633 117.9934082 C-111.47456001 100.73091082 -112.04681886 81.00136664 -108 63 C-107.75507813 61.89914063 -107.51015625 60.79828125 -107.2578125 59.6640625 C-104.81772187 50.05485604 -100.61933845 41.69875423 -96 33 C-95.32826848 31.66921114 -94.65850774 30.33738169 -94 29 C-93.34 29 -92.68 29 -92 29 C-91.71125 28.236875 -91.4225 27.47375 -91.125 26.6875 C-90 24 -90 24 -88 21 C-87.34 21 -86.68 21 -86 21 C-86 20.34 -86 19.68 -86 19 C-85.34 19 -84.68 19 -84 19 C-83.67 18.01 -83.34 17.02 -83 16 C-82.34 16 -81.68 16 -81 16 C-81 15.34 -81 14.68 -81 14 C-80.34 14 -79.68 14 -79 14 C-79 13.34 -79 12.68 -79 12 C-77.35 12 -75.7 12 -74 12 C-73.42844648 15.7722532 -73.9620344 16.94716676 -76.234375 20.109375 C-76.91632935 21.03182007 -76.91632935 21.03182007 -77.61206055 21.97290039 C-80.02449349 25.49628311 -81.76989903 29.32175427 -83.5625 33.1875 C-83.95236084 34.02466553 -84.34222168 34.86183105 -84.74389648 35.72436523 C-92.08971597 50.88104072 -92.08971597 50.88104072 -91.2265625 67.15625 C-89.70149084 69.4487144 -88.60567606 70.13616174 -86 71 C-68.8799399 70.47275177 -49.53284122 57.86809823 -38 46 C-37.01 45.01 -37.01 45.01 -36 44 C-35.34 44 -34.68 44 -34 44 C-34 43.34 -34 42.68 -34 42 C-33.34 42 -32.68 42 -32 42 C-32 41.34 -32 40.68 -32 40 C-31.34 40 -30.68 40 -30 40 C-29.73316406 39.41476563 -29.46632813 38.82953125 -29.19140625 38.2265625 C-27.98062783 35.96379627 -26.6463301 34.28116429 -24.9375 32.375 C-23.33621517 30.5818742 -22.07671842 29.15343684 -21 27 C-20.34 27 -19.68 27 -19 27 C-18.74347656 26.26910156 -18.48695313 25.53820312 -18.22265625 24.78515625 C-16.94085523 21.86527086 -15.4800707 19.87620563 -13.4375 17.4375 C-10.18890876 13.48554406 -7.05621943 9.47578874 -4 5.375 C-2.8553125 3.83972656 -2.8553125 3.83972656 -1.6875 2.2734375 C-1.130625 1.52320313 -0.57375 0.77296875 0 0 Z M1 36 C0.34 37.65 -0.32 39.3 -1 41 C-1.66 41 -2.32 41 -3 41 C-6.02517909 44.05558423 -6.02517909 44.05558423 -7 48 C-7.66 48 -8.32 48 -9 48 C-11.39820305 50.63684747 -11.39820305 50.63684747 -12 54 C-12.66 54 -13.32 54 -14 54 C-15.53237551 55.55383147 -15.53237551 55.55383147 -17.125 57.5625 C-20.29312862 61.31756613 -23.69430236 64.45265657 -27.49609375 67.5546875 C-27.99238281 68.03164062 -28.48867187 68.50859375 -29 69 C-29 69.66 -29 70.32 -29 71 C-29.81210938 71.38671875 -29.81210938 71.38671875 -30.640625 71.78125 C-33.43492441 73.22466294 -36.08219346 74.83438534 -38.75 76.5 C-39.73484375 77.1084375 -40.7196875 77.716875 -41.734375 78.34375 C-42.48203125 78.8903125 -43.2296875 79.436875 -44 80 C-44 80.66 -44 81.32 -44 82 C-44.85722656 82.26941406 -45.71445313 82.53882813 -46.59765625 82.81640625 C-50.00050957 84.00017727 -53.18023336 85.40075836 -56.4375 86.9375 C-60.9292537 89.03947627 -65.4257099 91.08518089 -70 93 C-68.76396024 99.22532989 -67.0892788 105.11661285 -64.875 111.0625 C-64.57078125 111.88250488 -64.2665625 112.70250977 -63.953125 113.54736328 C-60.86547119 121.66657491 -57.0878297 129.34526053 -53 137 C-52.65839844 137.64356445 -52.31679687 138.28712891 -51.96484375 138.95019531 C-49.99999857 142.64642023 -48.01154926 146.3289226 -46 150 C-45.34 150 -44.68 150 -44 150 C-43.34 151.98 -42.68 153.96 -42 156 C-41.34 156 -40.68 156 -40 156 C-39.78472656 156.68707031 -39.56945312 157.37414062 -39.34765625 158.08203125 C-37.60494188 161.85538671 -35.17480523 164.5926978 -32.4375 167.6875 C-27.10215453 173.79569094 -27.10215453 173.79569094 -26 176 C-25.34 176 -24.68 176 -24 176 C-24 176.66 -24 177.32 -24 178 C-23.34 178 -22.68 178 -22 178 C-21.75378906 178.58523438 -21.50757813 179.17046875 -21.25390625 179.7734375 C-19.80626232 182.34402017 -18.20757518 183.75455693 -15.9375 185.625 C-12.09722222 188.80555556 -12.09722222 188.80555556 -11 191 C-10.34 191 -9.68 191 -9 191 C-9 191.66 -9 192.32 -9 193 C-7.16818351 194.85810695 -7.16818351 194.85810695 -4.8125 196.6875 C-4.03519531 197.33074219 -3.25789063 197.97398437 -2.45703125 198.63671875 C-0.09864017 200.22508943 -0.09864017 200.22508943 2.53125 199.890625 C5.19184214 198.93079113 7.07499863 197.78592384 9.3125 196.0625 C10.00988281 195.53785156 10.70726562 195.01320313 11.42578125 194.47265625 C11.94527344 193.98667969 12.46476562 193.50070312 13 193 C13 192.34 13 191.68 13 191 C13.66 191 14.32 191 15 191 C16.71358643 189.38161281 18.3707726 187.70328319 20 186 C21.10411768 184.9374491 22.20828412 183.87494885 23.3125 182.8125 C26.23028592 180.4073517 26.23028592 180.4073517 26 178 C26.66 178 27.32 178 28 178 C28 177.34 28 176.68 28 176 C28.66 176 29.32 176 30 176 C31.8915307 173.78581383 33.67649679 171.56433016 35.4375 169.25 C35.92798828 168.61578125 36.41847656 167.9815625 36.92382812 167.328125 C37.87146381 166.10041885 38.81483755 164.86940832 39.75341797 163.63476562 C40.7696464 162.30208534 41.80581975 160.98463304 42.84765625 159.671875 C44.18916939 158.06396616 44.18916939 158.06396616 44 156 C44.66 156 45.32 156 46 156 C46.66 154.02 47.32 152.04 48 150 C48.66 150 49.32 150 50 150 C51.90087094 146.39846927 53.7947344 142.79329612 55.6875 139.1875 C56.21794922 138.18267578 56.74839844 137.17785156 57.29492188 136.14257812 C62.51297167 126.18666718 67.14686997 116.17146133 70.875 105.5625 C71.1946875 104.69173828 71.514375 103.82097656 71.84375 102.92382812 C72.14023437 102.08400391 72.43671875 101.24417969 72.7421875 100.37890625 C73.0088623 99.6319751 73.27553711 98.88504395 73.55029297 98.11547852 C74.07307643 95.65623928 73.9792155 94.31290515 73 92 C70.61910955 90.79904643 68.43456059 89.87556558 65.9375 89 C64.56669299 88.4896984 63.19688892 87.97669415 61.828125 87.4609375 C61.16748047 87.2144043 60.50683594 86.96787109 59.82617188 86.71386719 C57.53787767 85.81935218 55.36447177 84.76186303 53.1875 83.625 C50.29933428 81.84860418 50.29933428 81.84860418 48 82 C48 81.34 48 80.68 48 80 C45.66031073 78.24454773 45.66031073 78.24454773 42.75 76.5 C41.28820312 75.58734375 41.28820312 75.58734375 39.796875 74.65625 C37.56209634 73.33286152 35.34283528 72.11563585 33 71 C33 70.34 33 69.68 33 69 C31.44616853 67.46762449 31.44616853 67.46762449 29.4375 65.875 C25.68243387 62.70687138 22.54734343 59.30569764 19.4453125 55.50390625 C18.96835937 55.00761719 18.49140625 54.51132813 18 54 C17.34 54 16.68 54 16 54 C15 52 14 50 13 48 C12.34 48 11.68 48 11 48 C10.71125 47.401875 10.4225 46.80375 10.125 46.1875 C8.95257974 43.80672208 8.95257974 43.80672208 7 41 C6.34 41 5.68 41 5 41 C4.01 38.525 4.01 38.525 3 36 C2.34 36 1.68 36 1 36 Z " fill="#59096F" transform="translate(248,135)"/>
<path d="M0 0 C4.31180732 0.48405436 6.0589554 1.62004866 8.8125 4.9375 C9.41707031 5.64777344 10.02164063 6.35804688 10.64453125 7.08984375 C12 9 12 9 12 11 C12.66 11 13.32 11 14 11 C15.4453125 12.50390625 15.4453125 12.50390625 17.125 14.5625 C20.29312862 18.31756613 23.69430236 21.45265657 27.49609375 24.5546875 C27.99238281 25.03164062 28.48867188 25.50859375 29 26 C29 26.66 29 27.32 29 28 C30.175625 28.4640625 30.175625 28.4640625 31.375 28.9375 C34 30 34 30 36 31 C36 31.66 36 32.32 36 33 C36.53882813 33.10570312 37.07765625 33.21140625 37.6328125 33.3203125 C40.59141501 34.16981223 43.13497937 35.4736154 45.875 36.875 C46.88304687 37.38804687 47.89109375 37.90109375 48.9296875 38.4296875 C49.94289063 38.94789063 50.95609375 39.46609375 52 40 C53.99907579 41.00184629 55.99880669 42.0023902 58 43 C57.27544902 63.28742732 44.03739973 83.3970428 32 99 C31.27039063 99.95390625 30.54078125 100.9078125 29.7890625 101.890625 C11.78761217 124.63613986 11.78761217 124.63613986 3 128 C-1.82620328 126.93742415 -4.91997183 123.62748679 -8.375 120.3125 C-8.95008301 119.76940186 -9.52516602 119.22630371 -10.11767578 118.66674805 C-11.7519967 117.11818852 -13.37651569 115.55990137 -15 114 C-15.7115625 113.3296875 -16.423125 112.659375 -17.15625 111.96875 C-24.51176853 104.88070487 -30.2809817 96.41928117 -36 88 C-36.41894531 87.401875 -36.83789062 86.80375 -37.26953125 86.1875 C-44.7621213 74.96114433 -54.82826131 56.76984428 -54 43 C-52.14374971 42.07187485 -50.28725802 41.14422998 -48.4296875 40.21875 C-46.74324128 39.37281556 -45.06122989 38.5180046 -43.3828125 37.65625 C-42.51398438 37.2128125 -41.64515625 36.769375 -40.75 36.3125 C-39.94046875 35.89613281 -39.1309375 35.47976562 -38.296875 35.05078125 C-36.19172997 34.0877132 -34.25947979 33.47158867 -32 33 C-32 32.34 -32 31.68 -32 31 C-27.61538462 28 -27.61538462 28 -25 28 C-25 27.34 -25 26.68 -25 26 C-23.49609375 24.5546875 -23.49609375 24.5546875 -21.4375 22.875 C-17.68243387 19.70687138 -14.54734343 16.30569764 -11.4453125 12.50390625 C-10.72988281 11.75947266 -10.72988281 11.75947266 -10 11 C-9.34 11 -8.68 11 -8 11 C-7.60167969 10.12601563 -7.60167969 10.12601563 -7.1953125 9.234375 C-5.96697004 6.93825772 -4.59685061 5.19643982 -2.875 3.25 C-2.33617187 2.63640625 -1.79734375 2.0228125 -1.2421875 1.390625 C-0.83226562 0.93171875 -0.42234375 0.4728125 0 0 Z " fill="#376FB7" transform="translate(248,192)"/>
<path d="M0 0 C2.88441546 1.87822402 3.47660176 2.63705155 4.6875 5.75 C5.35293867 10.50866025 5.37143262 14.48735517 3.0625 18.75 C-0.26860328 21.55513961 -3.05100127 22.86429957 -7.4765625 22.640625 C-9.43034783 22.40589461 -11.37327687 22.08434882 -13.3125 21.75 C-13.3125 21.09 -13.3125 20.43 -13.3125 19.75 C-13.9725 19.75 -14.6325 19.75 -15.3125 19.75 C-15.3125 19.09 -15.3125 18.43 -15.3125 17.75 C-15.9725 17.75 -16.6325 17.75 -17.3125 17.75 C-18.66978648 13.67814056 -18.9718499 10.00316911 -18.3125 5.75 C-14.34335025 -1.65192791 -7.55633833 -2.85144843 0 0 Z " fill="#F02F5B" transform="translate(326.3125,169.25)"/>
<path d="M0 0 C3.62535141 1.647887 6.20557709 3.41115419 8 7 C8.42276661 11.23535277 8.34955352 14.95133945 7 19 C6.34 19 5.68 19 5 19 C5 19.66 5 20.32 5 21 C4.34 21 3.68 21 3 21 C3 21.66 3 22.32 3 23 C-3.03997294 24.16560881 -6.45013443 24.15580591 -12 21 C-14.77804449 18.02167788 -15.39262444 16.04320258 -15.3125 12 C-15.30863281 11.154375 -15.30476562 10.30875 -15.30078125 9.4375 C-14.97871201 6.82748433 -14.41206603 5.20935501 -13 3 C-8.60555398 0.13850027 -5.20175248 -0.56746391 0 0 Z " fill="#ED325C" transform="translate(184,168)"/>
<path d="M0 0 C1.65 0 3.3 0 5 0 C5 0.66 5 1.32 5 2 C5.66 2 6.32 2 7 2 C7 2.66 7 3.32 7 4 C7.99 4.33 8.98 4.66 10 5 C10 5.66 10 6.32 10 7 C10.66 7 11.32 7 12 7 C12 7.66 12 8.32 12 9 C12.66 9 13.32 9 14 9 C18 14.41176471 18 14.41176471 18 17 C18.66 17 19.32 17 20 17 C20.96345444 18.87237371 21.92053102 20.7480299 22.875 22.625 C23.67550781 24.19121094 23.67550781 24.19121094 24.4921875 25.7890625 C25.91454291 28.81801625 27.0122001 31.80643334 28 35 C26.68 35 25.36 35 24 35 C23.67 34.01 23.34 33.02 23 32 C23.33 31.67 23.66 31.34 24 31 C22.02 31.99 22.02 31.99 20 33 C20 36.3 20 39.6 20 43 C19.34 43 18.68 43 18 43 C17.67128906 41.97003906 17.34257812 40.94007813 17.00390625 39.87890625 C13.20274026 28.36084139 8.65662118 16.42902915 1.2421875 6.69140625 C-0.43031448 4.41406864 -0.22939632 2.75275585 0 0 Z " fill="#601875" transform="translate(326,147)"/>
<path d="M0 0 C1.65 0 3.3 0 5 0 C5.5735481 3.78541748 5.03444461 4.95216027 2.75 8.125 C2.06901245 9.04454468 2.06901245 9.04454468 1.37426758 9.98266602 C-0.96574962 13.41765662 -2.6060987 17.15880869 -4.3125 20.9375 C-4.67150391 21.71673828 -5.03050781 22.49597656 -5.40039062 23.29882812 C-6.27343243 25.19623898 -7.13765436 27.09770403 -8 29 C-8.33 28.34 -8.66 27.68 -9 27 C-10.32 27 -11.64 27 -13 27 C-14.625 25.5 -14.625 25.5 -16 24 C-16.66 24 -17.32 24 -18 24 C-17.690625 23.401875 -17.38125 22.80375 -17.0625 22.1875 C-15.89790296 19.91043228 -15.89790296 19.91043228 -15 17 C-14.34 17 -13.68 17 -13 17 C-12.71125 16.236875 -12.4225 15.47375 -12.125 14.6875 C-11 12 -11 12 -9 9 C-8.34 9 -7.68 9 -7 9 C-7 8.34 -7 7.68 -7 7 C-6.34 7 -5.68 7 -5 7 C-4.67 6.01 -4.34 5.02 -4 4 C-3.34 4 -2.68 4 -2 4 C-2 3.34 -2 2.68 -2 2 C-1.34 2 -0.68 2 0 2 C0 1.34 0 0.68 0 0 Z " fill="#642178" transform="translate(169,147)"/>
<path d="M0 0 C1.65 0 3.3 0 5 0 C5 0.66 5 1.32 5 2 C5.66 2 6.32 2 7 2 C7 2.66 7 3.32 7 4 C7.99 4.33 8.98 4.66 10 5 C10 5.66 10 6.32 10 7 C10.66 7 11.32 7 12 7 C12 7.66 12 8.32 12 9 C12.66 9 13.32 9 14 9 C14.33 9.99 14.66 10.98 15 12 C14.195625 12.12375 13.39125 12.2475 12.5625 12.375 C11.716875 12.58125 10.87125 12.7875 10 13 C9.67 13.66 9.34 14.32 9 15 C10.65 15.33 12.3 15.66 14 16 C13.34 18.97 12.68 21.94 12 25 C8.74840005 20.97420958 6.72858556 16.51788658 4.5 11.875 C3.11379978 9.02114831 3.11379978 9.02114831 1.32421875 6.796875 C-0.406866 4.44791044 -0.23726605 2.84719254 0 0 Z " fill="#6A2977" transform="translate(326,147)"/>
<path d="M0 0 C2.91226879 1.4561344 3.31842064 3.49960664 4.625 6.4375 C5.07101562 7.42621094 5.51703125 8.41492188 5.9765625 9.43359375 C7 12 7 12 7 14 C5.68 14 4.36 14 3 14 C2.67 13.01 2.34 12.02 2 11 C2.33 10.67 2.66 10.34 3 10 C1.02 10.99 1.02 10.99 -1 12 C-1 15.3 -1 18.6 -1 22 C-1.66 22 -2.32 22 -3 22 C-3.67031719 20.0429132 -4.33614683 18.08428887 -5 16.125 C-5.37125 15.03445312 -5.7425 13.94390625 -6.125 12.8203125 C-7 10 -7 10 -7 8 C-6.21625 7.7525 -5.4325 7.505 -4.625 7.25 C-1.90589138 6.2337095 -1.90589138 6.2337095 -0.6875 4 C0.10835992 2.03724872 0.10835992 2.03724872 0 0 Z " fill="#652277" transform="translate(347,168)"/>
<path d="M0 0 C2.88636876 1.87949594 3.50256251 2.6195605 4.6875 5.75 C4.8828125 8.328125 4.8828125 8.328125 4.8125 11 C4.79445313 11.89203125 4.77640625 12.7840625 4.7578125 13.703125 C4.73460937 14.37859375 4.71140625 15.0540625 4.6875 15.75 C4.3575 15.75 4.0275 15.75 3.6875 15.75 C3.1925 10.8 3.1925 10.8 2.6875 5.75 C1.6975 5.75 0.7075 5.75 -0.3125 5.75 C-0.3125 4.76 -0.3125 3.77 -0.3125 2.75 C-5.28200912 1.75609818 -8.69319565 1.49406067 -13.3125 3.75 C-14.73305068 5.75136244 -14.73305068 5.75136244 -15.3125 7.75 C-15.9725 7.75 -16.6325 7.75 -17.3125 7.75 C-17.3125 9.07 -17.3125 10.39 -17.3125 11.75 C-16.3225 11.42 -15.3325 11.09 -14.3125 10.75 C-14.333125 11.678125 -14.35375 12.60625 -14.375 13.5625 C-14.47019604 16.77286011 -14.47019604 16.77286011 -13.3125 19.75 C-13.9725 19.75 -14.6325 19.75 -15.3125 19.75 C-15.3125 19.09 -15.3125 18.43 -15.3125 17.75 C-15.9725 17.75 -16.6325 17.75 -17.3125 17.75 C-18.66978648 13.67814056 -18.9718499 10.00316911 -18.3125 5.75 C-14.34335025 -1.65192791 -7.55633833 -2.85144843 0 0 Z " fill="#DD4B6E" transform="translate(326.3125,169.25)"/>
<path d="M0 0 C2 3 2 3 3 6 C3.99 5.34 4.98 4.68 6 4 C6.66 4.33 7.32 4.66 8 5 C8 3.68 8 2.36 8 1 C8.66 1 9.32 1 10 1 C7.10933941 10.59453303 7.10933941 10.59453303 4 14 C4 13.34 4 12.68 4 12 C2.68 12 1.36 12 0 12 C-1.625 10.5 -1.625 10.5 -3 9 C-3.66 9 -4.32 9 -5 9 C-4.690625 8.401875 -4.38125 7.80375 -4.0625 7.1875 C-2.89790296 4.91043228 -2.89790296 4.91043228 -2 2 C-1.34 2 -0.68 2 0 2 C0 1.34 0 0.68 0 0 Z " fill="#6C297E" transform="translate(156,162)"/>
<path d="M0 0 C2 3 2 3 1.74609375 4.86328125 C0.88757489 7.32197138 0.01189724 9.76205874 -0.9375 12.1875 C-1.44603516 13.50814453 -1.44603516 13.50814453 -1.96484375 14.85546875 C-3 17 -3 17 -5 18 C-4.67 18.66 -4.34 19.32 -4 20 C-4.66 20.99 -5.32 21.98 -6 23 C-6.66 23 -7.32 23 -8 23 C-7.67 24.65 -7.34 26.3 -7 28 C-8.65 28.66 -10.3 29.32 -12 30 C-11.00212897 26.67376324 -9.85185972 23.71430089 -8.25 20.625 C-4.84526405 14.04766919 -2.52931626 6.94718867 0 0 Z " fill="#865395" transform="translate(318,240)"/>
<path d="M0 0 C0.66 0.99 1.32 1.98 2 3 C1.67 3.66 1.34 4.32 1 5 C1.66 5.33 2.32 5.66 3 6 C3.40729228 8.32156597 3.74438677 10.6568787 4 13 C4.99 13 5.98 13 7 13 C7.33 14.98 7.66 16.96 8 19 C4.97118824 16.14935363 2.22495927 13.18744908 -0.375 9.9375 C-0.89835938 9.28652344 -1.42171875 8.63554687 -1.9609375 7.96484375 C-3 6 -3 6 -2.6640625 3.75390625 C-2.44492188 3.17511719 -2.22578125 2.59632813 -2 2 C-1.34 2 -0.68 2 0 2 C0 1.34 0 0.68 0 0 Z " fill="#4B79B5" transform="translate(220,281)"/>
<path d="M0 0 C1.32 0 2.64 0 4 0 C5.1202264 3.36683428 5.17403109 4.6397848 3.6015625 7.89453125 C2.94929688 8.85746094 2.29703125 9.82039063 1.625 10.8125 C0.97789062 11.78832031 0.33078125 12.76414062 -0.3359375 13.76953125 C-0.88507813 14.50558594 -1.43421875 15.24164063 -2 16 C-2.33 16 -2.66 16 -3 16 C-3.20086443 12.28400809 -3.1519437 11.22791555 -1 8 C-1.165 7.175 -1.33 6.35 -1.5 5.5 C-1.665 4.675 -1.83 3.85 -2 3 C-1.34 2.01 -0.68 1.02 0 0 Z " fill="#4876B7" transform="translate(284,273)"/>
<path d="M0 0 C1.65 0 3.3 0 5 0 C5 1.65 5 3.3 5 5 C4.67 3.68 4.34 2.36 4 1 C2.35 1.66 0.7 2.32 -1 3 C-0.938125 3.928125 -0.87625 4.85625 -0.8125 5.8125 C-1 9 -1 9 -2.5 10.875 C-2.995 11.24625 -3.49 11.6175 -4 12 C-5.32 11.34 -6.64 10.68 -8 10 C-8.33 11.65 -8.66 13.3 -9 15 C-9.99 14.67 -10.98 14.34 -12 14 C-10.625 11.5 -10.625 11.5 -9 9 C-8.34 9 -7.68 9 -7 9 C-7 8.34 -7 7.68 -7 7 C-6.34 7 -5.68 7 -5 7 C-4.67 6.01 -4.34 5.02 -4 4 C-3.34 4 -2.68 4 -2 4 C-2 3.34 -2 2.68 -2 2 C-1.34 2 -0.68 2 0 2 C0 1.34 0 0.68 0 0 Z " fill="#6D2F7E" transform="translate(169,147)"/>
<path d="M0 0 C2.41699608 7.25098824 -2.8103089 16.44251321 -6 23 C-6.33 23 -6.66 23 -7 23 C-7 20.69 -7 18.38 -7 16 C-6.34 16 -5.68 16 -5 16 C-5.33 14.35 -5.66 12.7 -6 11 C-5.67 11 -5.34 11 -5 11 C-4.67 9.02 -4.34 7.04 -4 5 C-3.34 5 -2.68 5 -2 5 C-2 4.01 -2 3.02 -2 2 C-1.34 2 -0.68 2 0 2 C0 1.34 0 0.68 0 0 Z " fill="#78438B" transform="translate(359,240)"/>
<path d="M0 0 C4.875 1.875 4.875 1.875 6 3 C7.51469448 3.23192865 9.03754562 3.41215238 10.5625 3.5625 C11.38878906 3.64628906 12.21507812 3.73007813 13.06640625 3.81640625 C13.70449219 3.87699219 14.34257812 3.93757812 15 4 C14.67 3.01 14.34 2.02 14 1 C15.65 1.33 17.3 1.66 19 2 C19 2.66 19 3.32 19 4 C18.34 4 17.68 4 17 4 C17 4.66 17 5.32 17 6 C10.84095191 7.18858823 7.48158252 7.17931786 2 4 C0.5625 1.8125 0.5625 1.8125 0 0 Z " fill="#E25678" transform="translate(170,185)"/>
<path d="M0 0 C6.875 1.875 6.875 1.875 8 3 C7.85665573 8.23757909 6.88208784 13.10657161 5 18 C4.67 18 4.34 18 4 18 C3.67 14.37 3.34 10.74 3 7 C3.99 6.67 4.98 6.34 6 6 C6 5.01 6 4.02 6 3 C5.01 3.33 4.02 3.66 3 4 C2.01 3.67 1.02 3.34 0 3 C0 2.01 0 1.02 0 0 Z " fill="#5E85B8" transform="translate(298,232)"/>
<path d="M0 0 C1.32 0.66 2.64 1.32 4 2 C3.01 3.485 3.01 3.485 2 5 C2.3121764 7.64632287 2.3121764 7.64632287 3 10 C2.01 10 1.02 10 0 10 C-0.66 10.66 -1.32 11.32 -2 12 C-3.4606285 9.35261084 -4 8.10551666 -4 5 C-3.01 4.67 -2.02 4.34 -1 4 C-0.26676204 1.98491642 -0.26676204 1.98491642 0 0 Z " fill="#540569" transform="translate(161,157)"/>
<path d="M0 0 C2.3125 0.1875 2.3125 0.1875 5 1 C6.8125 3.5625 6.8125 3.5625 8 6 C7.01 6.33 6.02 6.66 5 7 C4.34 6.01 3.68 5.02 3 4 C0.94074861 3.27617533 0.94074861 3.27617533 -1 3 C-0.67 4.65 -0.34 6.3 0 8 C-1.66666667 8 -3.33333333 8 -5 8 C-3.62845496 5.04590299 -2.01136276 2.55991624 0 0 Z " fill="#6C347D" transform="translate(248,135)"/>
<path d="M0 0 C0 0.66 0 1.32 0 2 C-0.99 2 -1.98 2 -3 2 C-3.33 2.99 -3.66 3.98 -4 5 C-5.918125 5.12375 -5.918125 5.12375 -7.875 5.25 C-10.05333418 5.45869931 -10.05333418 5.45869931 -12 6 C-13.5899433 7.92064793 -13.5899433 7.92064793 -14 10 C-14 9.34 -14 8.68 -14 8 C-16.31 8 -18.62 8 -21 8 C-21 7.67 -21 7.34 -21 7 C-19.948125 6.74476563 -19.948125 6.74476563 -18.875 6.484375 C-13.20782489 5.03678136 -5.46269327 0 0 0 Z " fill="#753A85" transform="translate(188,198)"/>
<path d="M0 0 C0.33 0 0.66 0 1 0 C1 2.31 1 4.62 1 7 C0.34 7 -0.32 7 -1 7 C-1.66 8.65 -2.32 10.3 -3 12 C-3.33 11.01 -3.66 10.02 -4 9 C-4.66 9 -5.32 9 -6 9 C-4.125 4.25 -4.125 4.25 -3 2 C-2.01 2 -1.02 2 0 2 C0 1.34 0 0.68 0 0 Z " fill="#54066A" transform="translate(351,256)"/>
<path d="M0 0 C2.375 0.3125 2.375 0.3125 5 1 C5.66 1.99 6.32 2.98 7 4 C5.8553125 3.9690625 5.8553125 3.9690625 4.6875 3.9375 C1.89814214 3.87057159 1.89814214 3.87057159 -1 5 C-1.73323796 7.01508358 -1.73323796 7.01508358 -2 9 C-2.99 8.01 -3.98 7.02 -5 6 C-3.35 4.02 -1.7 2.04 0 0 Z " fill="#4773B0" transform="translate(248,192)"/>
<path d="M0 0 C1.65 0 3.3 0 5 0 C5 0.66 5 1.32 5 2 C5.66 2 6.32 2 7 2 C7 2.66 7 3.32 7 4 C7.99 4.33 8.98 4.66 10 5 C9.01 5.33 8.02 5.66 7 6 C6.01 5.34 5.02 4.68 4 4 C3.67 4.66 3.34 5.32 3 6 C3.66 6 4.32 6 5 6 C4.67 6.99 4.34 7.98 4 9 C0.06153846 5.67692308 0.06153846 5.67692308 -0.25 2.25 C-0.1675 1.5075 -0.085 0.765 0 0 Z " fill="#6F377B" transform="translate(326,147)"/>
<path d="M0 0 C0.33 0.66 0.66 1.32 1 2 C0.3507041 3.34187818 -0.31731862 4.67479497 -1 6 C-1 6.99 -1 7.98 -1 9 C-2.5 10.6875 -2.5 10.6875 -4 12 C-5.32 11.01 -6.64 10.02 -8 9 C-6.71937515 7.2925002 -5.38232443 5.62626404 -4 4 C-3.34 4 -2.68 4 -2 4 C-1.34 2.68 -0.68 1.36 0 0 Z " fill="#3E72BA" transform="translate(242,199)"/>
<path d="M0 0 C2 3 2 3 1.75390625 4.859375 C0.87619552 7.35152776 -0.06451134 9.80331812 -1.0625 12.25 C-1.42472656 13.14203125 -1.78695313 14.0340625 -2.16015625 14.953125 C-2.43730469 15.62859375 -2.71445312 16.3040625 -3 17 C-3.33 17 -3.66 17 -4 17 C-3.58411954 10.80481527 -2.39748106 5.73310689 0 0 Z " fill="#743B81" transform="translate(318,240)"/>
<path d="M0 0 C2.31 0 4.62 0 7 0 C10.53846154 6.76923077 10.53846154 6.76923077 11 10 C10.67 10.66 10.34 11.32 10 12 C9.01 11.67 8.02 11.34 7 11 C7.33 10.01 7.66 9.02 8 8 C7.34 8 6.68 8 6 8 C6 6.35 6 4.7 6 3 C4.02 2.34 2.04 1.68 0 1 C0 0.67 0 0.34 0 0 Z " fill="#6B257F" transform="translate(315,225)"/>
<path d="M0 0 C0.33 1.32 0.66 2.64 1 4 C0.443125 4.0825 -0.11375 4.165 -0.6875 4.25 C-3.19955419 4.88732575 -3.19955419 4.88732575 -5.3125 7.125 C-8 9 -8 9 -11.8125 8.75 C-12.864375 8.5025 -13.91625 8.255 -15 8 C-12.01737882 6.01158588 -9.02359325 4.46328268 -5.8125 2.875 C-4.72582031 2.33617187 -3.63914063 1.79734375 -2.51953125 1.2421875 C-1.68808594 0.83226562 -0.85664063 0.42234375 0 0 Z " fill="#517CB1" transform="translate(212,226)"/>
<path d="M0 0 C0.66 0.33 1.32 0.66 2 1 C0.84826645 3.46800047 -0.04783565 5.04783565 -2 7 C-2.67651207 9.19704511 -2.67651207 9.19704511 -3.125 11.625 C-3.37636719 12.85089844 -3.37636719 12.85089844 -3.6328125 14.1015625 C-3.75398437 14.72804687 -3.87515625 15.35453125 -4 16 C-4.33 16 -4.66 16 -5 16 C-5.05437607 14.41705218 -5.09296271 12.83355744 -5.125 11.25 C-5.14820313 10.36828125 -5.17140625 9.4865625 -5.1953125 8.578125 C-4.98637114 5.82009905 -4.51063339 4.30096477 -3 2 C-2.01 1.34 -1.02 0.68 0 0 Z " fill="#DE6986" transform="translate(174,169)"/>
<path d="M0 0 C0.66 0.33 1.32 0.66 2 1 C0.125 5.75 0.125 5.75 -1 8 C-2.65 8 -4.3 8 -6 8 C-5.67 6.35 -5.34 4.7 -5 3 C-4.34 3 -3.68 3 -3 3 C-2.67 2.34 -2.34 1.68 -2 1 C-1.34 1.33 -0.68 1.66 0 2 C0 1.34 0 0.68 0 0 Z " fill="#67217A" transform="translate(345,271)"/>
<path d="M0 0 C5.68502535 1.64566523 10.76681636 4.29032784 16 7 C14.02 7.99 14.02 7.99 12 9 C12 8.34 12 7.68 12 7 C11.30132812 6.91363281 10.60265625 6.82726562 9.8828125 6.73828125 C7.16031137 6.31795176 4.61803791 5.86256547 2 5 C0.375 2.375 0.375 2.375 0 0 Z " fill="#6084B6" transform="translate(282,224)"/>
<path d="M0 0 C2.4375 0.625 2.4375 0.625 5 2 C5.8125 5.125 5.8125 5.125 6 8 C6.66 8 7.32 8 8 8 C8 9.65 8 11.3 8 13 C5.68757908 10.83676753 3.9843604 8.62352196 2.3125 5.9375 C1.87550781 5.24527344 1.43851563 4.55304688 0.98828125 3.83984375 C0 2 0 2 0 0 Z " fill="#698CBD" transform="translate(207,270)"/>
<path d="M0 0 C1.67542976 0.28604898 3.34385343 0.61781233 5 1 C3.375 3.0625 3.375 3.0625 1 5 C-2.125 4.9375 -2.125 4.9375 -5 4 C-5.66 3.01 -6.32 2.02 -7 1 C-5.5459375 1.0309375 -5.5459375 1.0309375 -4.0625 1.0625 C-1.12534105 1.35618499 -1.12534105 1.35618499 0 0 Z " fill="#622774" transform="translate(251,360)"/>
<path d="M0 0 C0.36666667 5.5 0.36666667 5.5 -1.375 7.875 C-3 9 -3 9 -5 9 C-5 8.01 -5 7.02 -5 6 C-5.99 6 -6.98 6 -8 6 C-6.85675161 4.9970458 -5.71032809 3.99770973 -4.5625 3 C-3.92441406 2.443125 -3.28632813 1.88625 -2.62890625 1.3125 C-1 0 -1 0 0 0 Z " fill="#6D2E7F" transform="translate(271,318)"/>
<path d="M0 0 C0.99 0 1.98 0 3 0 C1.79618552 2.49361571 0.54571278 4.68143083 -1 7 C-1.66 7 -2.32 7 -3 7 C-3.33 7.99 -3.66 8.98 -4 10 C-4.66 10 -5.32 10 -6 10 C-6.66 8.68 -7.32 7.36 -8 6 C-6.8553125 5.9071875 -6.8553125 5.9071875 -5.6875 5.8125 C-2.15155377 4.743493 -1.76052677 3.12093381 0 0 Z " fill="#632775" transform="translate(242,176)"/>
<path d="M0 0 C0.33 0.66 0.66 1.32 1 2 C0.06421005 4.35981813 -0.93347808 6.69631264 -2 9 C-2.66 8.67 -3.32 8.34 -4 8 C-4.61875 8.495 -5.2375 8.99 -5.875 9.5 C-8 11 -8 11 -10 11 C-10 10.34 -10 9.68 -10 9 C-8.3203125 7.34375 -8.3203125 7.34375 -6.125 5.5 C-4.00964496 3.71066742 -1.95980876 1.95980876 0 0 Z " fill="#5A82B8" transform="translate(233,209)"/>
<path d="M0 0 C1.9375 1.3125 1.9375 1.3125 4 4 C4.6575225 7.65582511 4.87210648 11.29108788 5 15 C3 14 3 14 2.1484375 11.6015625 C1.89320313 10.61929688 1.63796875 9.63703125 1.375 8.625 C1.11460937 7.64789063 0.85421875 6.67078125 0.5859375 5.6640625 C0 3 0 3 0 0 Z " fill="#824F92" transform="translate(140,240)"/>
<path d="M0 0 C3 1 3 1 4.1796875 2.734375 C5.13874367 5.38319681 5.19893014 7.44065467 5.125 10.25 C5.10695313 11.14203125 5.08890625 12.0340625 5.0703125 12.953125 C5.03550781 13.96632812 5.03550781 13.96632812 5 15 C4.67 15 4.34 15 4 15 C3.67 11.7 3.34 8.4 3 5 C2.01 5 1.02 5 0 5 C0 3.35 0 1.7 0 0 Z " fill="#DF5774" transform="translate(326,170)"/>
<path d="M0 0 C1.67542976 0.28604898 3.34385343 0.61781233 5 1 C4.34 3.97 3.68 6.94 3 10 C0.51280729 7.08025204 -0.58572305 4.83206182 -1 1 C-0.67 0.67 -0.34 0.34 0 0 Z " fill="#702F7F" transform="translate(335,162)"/>
<path d="M0 0 C2.96659857 3.55991828 5.381348 7.65222543 7 12 C6.67 12.66 6.34 13.32 6 14 C4.68 13.01 3.36 12.02 2 11 C2.33 9.68 2.66 8.36 3 7 C2.34 7 1.68 7 1 7 C0.67 4.69 0.34 2.38 0 0 Z " fill="#875793" transform="translate(190,262)"/>
<path d="M0 0 C2.475 0.99 2.475 0.99 5 2 C5 3.98 5 5.96 5 8 C4.01 8 3.02 8 2 8 C0.74335022 5.09399739 0 3.20395416 0 0 Z " fill="#6188C0" transform="translate(199,252)"/>
<path d="M0 0 C0.33 0.99 0.66 1.98 1 3 C-1.16888758 6.73440042 -3.75500739 9.59402415 -7.875 10.9375 C-8.57625 10.958125 -9.2775 10.97875 -10 11 C-8.625 9 -8.625 9 -7 7 C-6.34 7 -5.68 7 -5 7 C-5 6.34 -5 5.68 -5 5 C-4.34 5 -3.68 5 -3 5 C-3 4.34 -3 3.68 -3 3 C-2.34 3 -1.68 3 -1 3 C-0.67 2.01 -0.34 1.02 0 0 Z " fill="#724184" transform="translate(219,172)"/>
<path d="M0 0 C0.33 1.32 0.66 2.64 1 4 C-2.4019487 6.09350689 -5.05272412 6.17942163 -9 6 C-6.11964908 3.75972706 -3.15133488 1.83827868 0 0 Z " fill="#632974" transform="translate(197,192)"/>
<path d="M0 0 C0.93423645 3.01031744 1.04449911 3.86650268 0 7 C1.32 7.33 2.64 7.66 4 8 C1.36 8.66 -1.28 9.32 -4 10 C-3.52449439 8.51965236 -3.04448784 7.04074979 -2.5625 5.5625 C-2.29566406 4.73878906 -2.02882812 3.91507813 -1.75390625 3.06640625 C-1 1 -1 1 0 0 Z " fill="#6F347E" transform="translate(150,172)"/>
<path d="M0 0 C0 0.66 0 1.32 0 2 C2.31 2.33 4.62 2.66 7 3 C6.67 3.99 6.34 4.98 6 6 C2.08788267 4.84414715 -0.8745041 3.64465038 -4 1 C-2 0 -2 0 0 0 Z " fill="#6E387D" transform="translate(304,217)"/>
<path d="M0 0 C0.66 0 1.32 0 2 0 C1.979375 0.928125 1.95875 1.85625 1.9375 2.8125 C1.84230396 6.02286011 1.84230396 6.02286011 3 9 C0 9 0 9 -2 8 C-1.125 1.125 -1.125 1.125 0 0 Z " fill="#530667" transform="translate(147,181)"/>
<path d="M0 0 C0.66 0.99 1.32 1.98 2 3 C-0.52788007 5.79872437 -2.20411134 7.45773019 -6 8 C-5.1875 5.5625 -5.1875 5.5625 -4 3 C-3.01 2.67 -2.02 2.34 -1 2 C-0.67 1.34 -0.34 0.68 0 0 Z " fill="#520667" transform="translate(346,168)"/>
<path d="M0 0 C2.375 0.25 2.375 0.25 5 1 C5.66666667 2.33333333 6.33333333 3.66666667 7 5 C9.55519921 5.81171228 9.55519921 5.81171228 12 6 C11.67 6.66 11.34 7.32 11 8 C6.40378078 6.5129879 3.53027653 4.20187872 0 1 C0 0.67 0 0.34 0 0 Z " fill="#688AB8" transform="translate(240,312)"/>
<path d="M0 0 C0.99 0.33 1.98 0.66 3 1 C3 1.66 3 2.32 3 3 C3.66 3 4.32 3 5 3 C6.38938077 4.96147874 7.7260411 6.96166576 9 9 C8.01 9 7.02 9 6 9 C4.62131719 7.37064759 3.28725907 5.70250393 2 4 C1.34 3.67 0.68 3.34 0 3 C0 2.01 0 1.02 0 0 Z " fill="#5D7FBB" transform="translate(257,200)"/>
<path d="M0 0 C1.65 1.65 3.3 3.3 5 5 C3.68 5.99 2.36 6.98 1 8 C0.01 7.01 -0.98 6.02 -2 5 C-1.34 3.35 -0.68 1.7 0 0 Z " fill="#66217B" transform="translate(155,200)"/>
<path d="M0 0 C1.4370809 -0.05422947 2.87475462 -0.09289723 4.3125 -0.125 C5.11300781 -0.14820313 5.91351563 -0.17140625 6.73828125 -0.1953125 C9 0 9 0 12 2 C3.42857143 3.28571429 3.42857143 3.28571429 0 2 C0 1.34 0 0.68 0 0 Z " fill="#E06581" transform="translate(313,189)"/>
<path d="M0 0 C0 3 0 3 -1 7 C-3.97 7.66 -6.94 8.32 -10 9 C-6.85281112 5.7317654 -3.50647501 2.8689341 0 0 Z " fill="#6E357D" transform="translate(208,183)"/>
<path d="M0 0 C1.98 0.99 3.96 1.98 6 3 C6 3.99 6 4.98 6 6 C4.125 6.625 4.125 6.625 2 7 C1.34 6.34 0.68 5.68 0 5 C0.33 4.34 0.66 3.68 1 3 C0.34 3 -0.32 3 -1 3 C-0.67 2.01 -0.34 1.02 0 0 Z " fill="#56066A" transform="translate(330,150)"/>
<path d="M0 0 C0.28875 0.598125 0.5775 1.19625 0.875 1.8125 C2.04742026 4.19327792 2.04742026 4.19327792 4 7 C3.625 9.1875 3.625 9.1875 3 11 C0.82361603 7.68811135 -0.55925456 4.96670899 -1 1 C-0.67 0.67 -0.34 0.34 0 0 Z " fill="#6F3A7E" transform="translate(146,254)"/>
<path d="M0 0 C2.35953094 2.35953094 2.49141413 3.77895617 3 7 C2.34 7 1.68 7 1 7 C1 6.34 1 5.68 1 5 C-1.475 4.01 -1.475 4.01 -4 3 C-2.68 2.01 -1.36 1.02 0 0 Z " fill="#632174" transform="translate(215,335)"/>
<path d="M0 0 C0.99 0 1.98 0 3 0 C2.34 1.32 1.68 2.64 1 4 C0.34 4 -0.32 4 -1 4 C-1 4.66 -1 5.32 -1 6 C-3.475 5.01 -3.475 5.01 -6 4 C-6 3.67 -6 3.34 -6 3 C-4.35 3 -2.7 3 -1 3 C-0.67 2.01 -0.34 1.02 0 0 Z " fill="#6B2D7A" transform="translate(220,200)"/>
<path d="M0 0 C0.66 0.33 1.32 0.66 2 1 C0.68 3.31 -0.64 5.62 -2 8 C-2.99 8 -3.98 8 -5 8 C-3.8141763 4.62496331 -2.72426311 2.35277269 0 0 Z " fill="#E36381" transform="translate(313,169)"/>
<path d="M0 0 C1.485 0.99 1.485 0.99 3 2 C3 2.66 3 3.32 3 4 C3.66 4 4.32 4 5 4 C5 4.66 5 5.32 5 6 C5.99 6.33 6.98 6.66 8 7 C7.01 7.33 6.02 7.66 5 8 C2.3125 6.3125 2.3125 6.3125 0 4 C0 2.68 0 1.36 0 0 Z " fill="#764785" transform="translate(234,322)"/>
<path d="M0 0 C0.99 0.99 1.98 1.98 3 3 C2.01 5.97 1.02 8.94 0 12 C-0.33 12 -0.66 12 -1 12 C-1 9.69 -1 7.38 -1 5 C-0.34 5 0.32 5 1 5 C0.67 3.35 0.34 1.7 0 0 Z " fill="#703783" transform="translate(353,251)"/>
<path d="M0 0 C1.17539996 0.92652701 2.34010577 1.86663387 3.5 2.8125 C4.1496875 3.33457031 4.799375 3.85664063 5.46875 4.39453125 C7 6 7 6 7 9 C0.70535714 4.17857143 0.70535714 4.17857143 0 0 Z " fill="#6183B7" transform="translate(266,209)"/>
<path d="M0 0 C2.02045442 0.60183749 4.02111039 1.27306096 6 2 C6.33 2.66 6.66 3.32 7 4 C5.35 4.66 3.7 5.32 2 6 C2 5.01 2 4.02 2 3 C1.34 3 0.68 3 0 3 C0 2.01 0 1.02 0 0 Z " fill="#E25C7C" transform="translate(182,168)"/>
<path d="M0 0 C1.37562854 1.28965176 2.70766393 2.62689293 4 4 C4 4.66 4 5.32 4 6 C4.66 6 5.32 6 6 6 C6.33 6.99 6.66 7.98 7 9 C5.35 8.67 3.7 8.34 2 8 C1.34 5.36 0.68 2.72 0 0 Z " fill="#7B4388" transform="translate(267,156)"/>
<path d="M0 0 C0 1.65 0 3.3 0 5 C-1.98 5 -3.96 5 -6 5 C-4.87312259 1.61936778 -3.78825335 0 0 0 Z " fill="#570F6A" transform="translate(173,148)"/>
<path d="M0 0 C2.62187494 1.04874998 3.79371361 1.64931313 5.25 4.125 C5.4975 4.74375 5.745 5.3625 6 6 C5.01 6.33 4.02 6.66 3 7 C2.34 6.01 1.68 5.02 1 4 C0.01 3.34 -0.98 2.68 -2 2 C-1.34 2 -0.68 2 0 2 C0 1.34 0 0.68 0 0 Z " fill="#622671" transform="translate(250,135)"/>
<path d="M0 0 C-0.33 0.66 -0.66 1.32 -1 2 C-1.35613097 3.66194453 -1.69208308 5.328451 -2 7 C-3.32 6.34 -4.64 5.68 -6 5 C-5.625 3.0625 -5.625 3.0625 -5 1 C-3 0 -3 0 0 0 Z " fill="#601A75" transform="translate(245,354)"/>
<path d="M0 0 C0.99 0.33 1.98 0.66 3 1 C2.67 1.99 2.34 2.98 2 4 C2.99 4.33 3.98 4.66 5 5 C4.01 5.33 3.02 5.66 2 6 C-0.1875 4.6875 -0.1875 4.6875 -2 3 C-2 2.34 -2 1.68 -2 1 C-1.34 0.67 -0.68 0.34 0 0 Z " fill="#622471" transform="translate(221,341)"/>
<path d="M0 0 C1.65 1.65 3.3 3.3 5 5 C3.02 5 1.04 5 -1 5 C-1.33 4.01 -1.66 3.02 -2 2 C-1.34 2 -0.68 2 0 2 C0 1.34 0 0.68 0 0 Z " fill="#632075" transform="translate(227,316)"/>
<path d="M0 0 C2.50037734 2.17424117 3.43628586 3.73045798 4 7 C4.66 7 5.32 7 6 7 C5.67 7.66 5.34 8.32 5 9 C4.01 8.67 3.02 8.34 2 8 C1.26953125 6.15234375 1.26953125 6.15234375 0.8125 3.9375 C0.65394531 3.20402344 0.49539062 2.47054688 0.33203125 1.71484375 C0.22246094 1.14894531 0.11289063 0.58304687 0 0 Z " fill="#764486" transform="translate(198,278)"/>
<path d="M0 0 C0.66 0.33 1.32 0.66 2 1 C2 1.66 2 2.32 2 3 C1.34 3 0.68 3 0 3 C0 3.99 0 4.98 0 6 C-0.99 6.33 -1.98 6.66 -3 7 C-3 5.02 -3 3.04 -3 1 C-2.01 0.67 -1.02 0.34 0 0 Z " fill="#550467" transform="translate(357,239)"/>
<path d="M0 0 C1.96301592 3.50538557 2.95902388 7.13351728 4 11 C1.4375 8.875 1.4375 8.875 -1 6 C-0.8125 2.6875 -0.8125 2.6875 0 0 Z " fill="#8C609A" transform="translate(179,233)"/>
<path d="M0 0 C2.31 0 4.62 0 7 0 C6.360625 0.268125 5.72125 0.53625 5.0625 0.8125 C2.66868314 1.88667752 2.66868314 1.88667752 2 5 C1.01 4.67 0.02 4.34 -1 4 C-0.67 2.68 -0.34 1.36 0 0 Z " fill="#436FA9" transform="translate(195,234)"/>
<path d="M0 0 C0.33 0.66 0.66 1.32 1 2 C-1.17508418 6.69360269 -1.17508418 6.69360269 -4.1875 7.8125 C-4.785625 7.874375 -5.38375 7.93625 -6 8 C-5.34 6.68 -4.68 5.36 -4 4 C-3.34 4 -2.68 4 -2 4 C-1.34 2.68 -0.68 1.36 0 0 Z " fill="#618ABB" transform="translate(242,199)"/>
<path d="M0 0 C0.93065133 2.60582371 1.14917407 3.64198224 0.0625 6.25 C-0.4634375 7.11625 -0.4634375 7.11625 -1 8 C-1.99 7.01 -2.98 6.02 -4 5 C-2.68 3.35 -1.36 1.7 0 0 Z " fill="#547CB8" transform="translate(247,193)"/>
<path d="M0 0 C2.31 0.33 4.62 0.66 7 1 C7 1.99 7 2.98 7 4 C7.66 4.33 8.32 4.66 9 5 C4.98525763 5 3.18024863 3.33218233 0 1 C0 0.67 0 0.34 0 0 Z " fill="#662E75" transform="translate(224,347)"/>
<path d="M0 0 C1.32 0 2.64 0 4 0 C2.63016497 3.16115776 2.0109362 3.9927092 -1 6 C-0.67 4.02 -0.34 2.04 0 0 Z " fill="#5A7FB2" transform="translate(269,298)"/>
<path d="M0 0 C0.66 0 1.32 0 2 0 C2.33 1.98 2.66 3.96 3 6 C2.01 6.33 1.02 6.66 0 7 C-1.125 2.25 -1.125 2.25 0 0 Z " fill="#68227C" transform="translate(292,291)"/>
<path d="M0 0 C0.66 0 1.32 0 2 0 C1.25 6.75 1.25 6.75 -1 9 C-0.67 6.03 -0.34 3.06 0 0 Z " fill="#6C2F7A" transform="translate(315,248)"/>
<path d="M0 0 C-2.93828597 2.50298434 -5.17902761 3.46930939 -9 4 C-9 3.34 -9 2.68 -9 2 C-5.5647952 -0.29013653 -4.014669 -0.17842973 0 0 Z " fill="#764685" transform="translate(194,221)"/>
<path d="M0 0 C0.33 0.66 0.66 1.32 1 2 C1.66 2 2.32 2 3 2 C3 2.66 3 3.32 3 4 C3.99 4.33 4.98 4.66 6 5 C6 5.33 6 5.66 6 6 C4.33388095 6.042721 2.66617115 6.04063832 1 6 C0 5 0 5 -0.0625 2.4375 C-0.041875 1.633125 -0.02125 0.82875 0 0 Z " fill="#6C367B" transform="translate(283,175)"/>
<path d="M0 0 C0.66 0.33 1.32 0.66 2 1 C1.67 1.66 1.34 2.32 1 3 C0.34 3 -0.32 3 -1 3 C-1.33 4.65 -1.66 6.3 -2 8 C-2.99 7.67 -3.98 7.34 -5 7 C-3.625 4.5 -3.625 4.5 -2 2 C-1.34 2 -0.68 2 0 2 C0 1.34 0 0.68 0 0 Z " fill="#784087" transform="translate(162,154)"/>
<path d="M0 0 C1.32 0.33 2.64 0.66 4 1 C4 1.99 4 2.98 4 4 C2.02 4 0.04 4 -2 4 C-1.34 2.68 -0.68 1.36 0 0 Z " fill="#56056D" transform="translate(337,158)"/>
<path d="M0 0 C-0.33 0.99 -0.66 1.98 -1 3 C-1.99 3.33 -2.98 3.66 -4 4 C-4.99 5.485 -4.99 5.485 -6 7 C-6.66 6.67 -7.32 6.34 -8 6 C-3.375 0 -3.375 0 0 0 Z " fill="#7C4889" transform="translate(237,154)"/>
<path d="M0 0 C0.66 1.32 1.32 2.64 2 4 C0.68 5.32 -0.64 6.64 -2 8 C-2.33 6.35 -2.66 4.7 -3 3 C-2.01 3 -1.02 3 0 3 C0 2.01 0 1.02 0 0 Z " fill="#672C7B" transform="translate(332,289)"/>
<path d="M0 0 C0.66 0.33 1.32 0.66 2 1 C0.68 3.64 -0.64 6.28 -2 9 C-3 5 -3 5 -1.5625 2.25 C-1.046875 1.5075 -0.53125 0.765 0 0 Z " fill="#794788" transform="translate(350,263)"/>
<path d="M0 0 C2.86724686 0.57344937 3.8614515 0.8614515 6 3 C5 4 5 4 2.4375 4.0625 C1.2309375 4.0315625 1.2309375 4.0315625 0 4 C0 2.66666667 0 1.33333333 0 0 Z " fill="#EC426B" transform="translate(322,186)"/>
<path d="M0 0 C1.25541557 3.76624671 0.37061958 5.37188934 -1 9 C-1.33 9 -1.66 9 -2 9 C-2 6.36 -2 3.72 -2 1 C-1.34 0.67 -0.68 0.34 0 0 Z " fill="#DE4C6D" transform="translate(171,176)"/>
<path d="M0 0 C2 1 2 1 3.125 4.0625 C3.41375 5.031875 3.7025 6.00125 4 7 C2.35 6.67 0.7 6.34 -1 6 C-0.67 4.02 -0.34 2.04 0 0 Z " fill="#783E89" transform="translate(347,168)"/>
</svg>
